<svg width="48" height="48" viewBox="0 0 48 48" fill="none" xmlns="http://www.w3.org/2000/svg">
<path fill-rule="evenodd" clip-rule="evenodd" d="M24 40C32.8366 40 40 32.8366 40 24C40 15.1634 32.8366 8 24 8C15.1634 8 8 15.1634 8 24C8 32.8366 15.1634 40 24 40ZM13.268 32.254C11.5081 29.9692 10.4615 27.1067 10.4615 23.9997C10.4615 16.5226 16.5229 10.4612 23.9999 10.4612C31.477 10.4612 37.5384 16.5226 37.5384 23.9997C37.5384 27.1072 36.4914 29.9702 34.731 32.2552C33.9278 31.5269 32.9014 31.0002 31.5506 30.514C31.3483 30.4412 31.1409 30.3696 30.882 30.2825L30.2515 30.0714C28.7183 29.5541 28.1758 29.2255 28.0496 28.8097C28.0452 28.7957 28.0385 28.7697 28.0289 28.7193C27.9743 28.4312 27.9868 28.1162 28.0989 27.8548C28.165 27.7006 28.2658 27.5633 28.4169 27.437C30.1173 25.902 30.9744 24.1721 30.9744 21.8125C30.9744 17.7014 27.7579 14.5643 24.0001 14.5643C20.2164 14.5643 17.0257 17.648 17.0257 21.8125C17.0257 24.1651 17.8606 25.8446 19.5002 27.3887C19.7112 27.5667 19.8172 27.6969 19.8892 27.8335C20.0287 28.0979 20.0465 28.4045 19.9854 28.6867C19.9811 28.7068 19.9774 28.7221 19.9751 28.7316C19.9724 28.7431 19.9716 28.7464 19.9739 28.7402C19.8524 29.1717 19.3493 29.4817 17.9317 29.9659L17.2054 30.2111C16.9025 30.3139 16.6616 30.3983 16.4259 30.4853C15.0976 30.9756 14.0711 31.517 13.268 32.254ZM14.9442 34.0639C17.343 36.2237 20.518 37.5382 23.9999 37.5382C27.4812 37.5382 30.6555 36.2242 33.0541 34.0652C32.517 33.5894 31.7727 33.2101 30.717 32.8301C30.5333 32.764 30.3411 32.6976 30.0972 32.6156L29.4646 32.4038C27.1747 31.6312 26.1439 31.0067 25.7004 29.5445C25.6724 29.4575 25.64 29.3337 25.6104 29.1776C25.4725 28.4498 25.5036 27.661 25.8366 26.8846C26.0532 26.3795 26.386 25.9264 26.8025 25.5794C27.9755 24.5197 28.5129 23.4351 28.5129 21.8125C28.5129 19.0749 26.412 17.0258 24.0001 17.0258C21.5574 17.0258 19.4872 19.0266 19.4872 21.8125C19.4872 23.4335 20.0122 24.4896 21.1291 25.5448C21.5305 25.8773 21.843 26.2614 22.0664 26.6851C22.5134 27.5325 22.5644 28.4076 22.3913 29.2075C22.3558 29.3712 22.3168 29.5015 22.3167 29.4871C21.9291 30.9264 20.9269 31.544 18.7273 32.2953L17.9963 32.5422C17.7122 32.6385 17.4904 32.7162 17.2783 32.7945C16.2347 33.1797 15.486 33.5731 14.9442 34.0639Z" fill="#3D3D3D"/>
</svg>
