<svg width="48" height="48" viewBox="0 0 48 48" fill="none" xmlns="http://www.w3.org/2000/svg">
<path fill-rule="evenodd" clip-rule="evenodd" d="M39.9688 14.3182C39.9896 14.3611 40 14.404 40 14.447V31.0606C40 31.9192 39.7917 32.7348 39.375 33.5076C38.9583 34.2803 38.3333 34.6667 37.5 34.6667H11.5C10.6667 34.6667 9.875 34.2803 9.125 33.5076C8.375 32.7348 8 31.9192 8 31.0606V14.447C8 14.404 8.01042 14.3611 8.03125 14.3182C7.98958 14.1679 7.98958 14.023 8.03125 13.8835C8.07292 13.744 8.14583 13.6098 8.25 13.4811C8.27083 13.4596 8.29167 13.4328 8.3125 13.4006C8.33333 13.3684 8.36458 13.3415 8.40625 13.3201C8.71875 12.8908 9.16146 12.5634 9.73438 12.3381C10.3073 12.1127 10.8958 12 11.5 12H37.5C38.1667 12 38.7031 12.1449 39.1094 12.4347C39.5156 12.7244 39.7813 13.1591 39.9063 13.7386C39.9479 13.8245 39.974 13.9157 39.9844 14.0123C39.9948 14.1089 39.9896 14.2109 39.9688 14.3182ZM11.0313 14.0606C10.8646 14.0606 10.6979 14.0713 10.5313 14.0928L24 25.1685L37.5 14.0606H11.0313ZM37.5 32.6061C37.7708 32.6061 37.9219 32.4183 37.9531 32.0426C37.9844 31.667 38 31.3397 38 31.0606V16.3144L24.6563 27.2936C24.5521 27.3794 24.4479 27.4438 24.3438 27.4868C24.2396 27.5297 24.125 27.5512 24 27.5512C23.875 27.5512 23.7604 27.5297 23.6563 27.4868C23.5521 27.4438 23.4479 27.3794 23.3438 27.2936L10 16.3144V31.0606C10 31.3397 10.1823 31.667 10.5469 32.0426C10.9115 32.4183 11.2292 32.6061 11.5 32.6061H37.5Z" fill="#3D3D3D"/>
</svg>
