<svg width="48" height="48" viewBox="0 0 48 48" fill="none" xmlns="http://www.w3.org/2000/svg">
<path fill-rule="evenodd" clip-rule="evenodd" d="M24 48C37.2548 48 48 37.2548 48 24C48 10.7452 37.2548 0 24 0C10.7452 0 0 10.7452 0 24C0 37.2548 10.7452 48 24 48Z" fill="#FF7171"/>
<path fill-rule="evenodd" clip-rule="evenodd" d="M15.6442 18.8745C17.4282 18.8745 18.8745 17.4282 18.8745 15.6441C18.8745 13.8601 17.4282 12.4138 15.6442 12.4138C13.8601 12.4138 12.4138 13.8601 12.4138 15.6441C12.4138 17.4282 13.8601 18.8745 15.6442 18.8745ZM15.6442 27.2304C17.4282 27.2304 18.8745 25.7841 18.8745 24C18.8745 22.2159 17.4282 20.7696 15.6442 20.7696C13.8601 20.7696 12.4138 22.2159 12.4138 24C12.4138 25.7841 13.8601 27.2304 15.6442 27.2304ZM35.5862 15.6441C35.5862 17.4282 34.14 18.8745 32.3559 18.8745C30.5718 18.8745 29.1255 17.4282 29.1255 15.6441C29.1255 13.8601 30.5718 12.4138 32.3559 12.4138C34.14 12.4138 35.5862 13.8601 35.5862 15.6441ZM24 18.8745C25.7841 18.8745 27.2304 17.4282 27.2304 15.6441C27.2304 13.8601 25.7841 12.4138 24 12.4138C22.216 12.4138 20.7697 13.8601 20.7697 15.6441C20.7697 17.4282 22.216 18.8745 24 18.8745ZM27.6611 24C27.6611 25.7841 26.2148 27.2304 24.4307 27.2304C22.6467 27.2304 21.2004 25.7841 21.2004 24C21.2004 22.2159 22.6467 20.7696 24.4307 20.7696C26.2148 20.7696 27.6611 22.2159 27.6611 24ZM15.6442 35.5862C17.4282 35.5862 18.8745 34.1399 18.8745 32.3558C18.8745 30.5718 17.4282 29.1255 15.6442 29.1255C13.8601 29.1255 12.4138 30.5718 12.4138 32.3558C12.4138 34.1399 13.8601 35.5862 15.6442 35.5862ZM35.5862 32.3558C35.5862 34.1399 34.14 35.5862 32.3559 35.5862C30.5718 35.5862 29.1255 34.1399 29.1255 32.3558C29.1255 30.5718 30.5718 29.1255 32.3559 29.1255C34.14 29.1255 35.5862 30.5718 35.5862 32.3558Z" fill="white"/>
</svg>
