<svg width="1250" height="388" viewBox="0 0 1250 388" fill="none" xmlns="http://www.w3.org/2000/svg">
<path fill-rule="evenodd" clip-rule="evenodd" d="M133.427 20.6933C127.71 20.6933 123.076 16.0609 123.076 10.3467C123.076 4.6324 127.71 0 133.427 0C139.14 0 143.777 4.6324 143.777 10.3467C143.777 16.0609 139.14 20.6933 133.427 20.6933Z" fill="#3D3D3D"/>
<path fill-rule="evenodd" clip-rule="evenodd" d="M133.427 103.467C127.71 103.467 123.076 98.8342 123.076 93.12C123.076 87.4057 127.71 82.7733 133.427 82.7733C139.14 82.7733 143.777 87.4057 143.777 93.12C143.777 98.8342 139.14 103.467 133.427 103.467Z" fill="#3D3D3D"/>
<path fill-rule="evenodd" clip-rule="evenodd" d="M133.427 186.24C127.71 186.24 123.076 181.608 123.076 175.893C123.076 170.179 127.71 165.547 133.427 165.547C139.14 165.547 143.777 170.179 143.777 175.893C143.777 181.608 139.14 186.24 133.427 186.24Z" fill="#3D3D3D"/>
<path fill-rule="evenodd" clip-rule="evenodd" d="M133.427 269.013C127.71 269.013 123.076 264.383 123.076 258.668C123.076 252.953 127.71 248.32 133.427 248.32C139.14 248.32 143.777 252.953 143.777 258.668C143.777 264.383 139.14 269.013 133.427 269.013Z" fill="#3D3D3D"/>
<path fill-rule="evenodd" clip-rule="evenodd" d="M133.427 351.787C127.71 351.787 123.076 347.153 123.076 341.442C123.076 335.726 127.71 331.093 133.427 331.093C139.14 331.093 143.777 335.726 143.777 341.442C143.777 347.153 139.14 351.787 133.427 351.787Z" fill="#3D3D3D"/>
<path fill-rule="evenodd" clip-rule="evenodd" d="M10.5131 20.6933C4.79668 20.6933 0.162506 16.0609 0.162506 10.3467C0.162506 4.6324 4.79668 0 10.5131 0C16.2264 0 20.8637 4.6324 20.8637 10.3467C20.8637 16.0609 16.2264 20.6933 10.5131 20.6933Z" fill="#3D3D3D"/>
<path fill-rule="evenodd" clip-rule="evenodd" d="M10.5131 103.467C4.79668 103.467 0.162506 98.8342 0.162506 93.12C0.162506 87.4057 4.79668 82.7733 10.5131 82.7733C16.2264 82.7733 20.8637 87.4057 20.8637 93.12C20.8637 98.8342 16.2264 103.467 10.5131 103.467Z" fill="#3D3D3D"/>
<path fill-rule="evenodd" clip-rule="evenodd" d="M10.5131 186.24C4.79668 186.24 0.162506 181.608 0.162506 175.893C0.162506 170.179 4.79668 165.547 10.5131 165.547C16.2264 165.547 20.8637 170.179 20.8637 175.893C20.8637 181.608 16.2264 186.24 10.5131 186.24Z" fill="#3D3D3D"/>
<path fill-rule="evenodd" clip-rule="evenodd" d="M10.5131 269.013C4.79668 269.013 0.162506 264.383 0.162506 258.668C0.162506 252.953 4.79668 248.32 10.5131 248.32C16.2264 248.32 20.8637 252.953 20.8637 258.668C20.8637 264.383 16.2264 269.013 10.5131 269.013Z" fill="#3D3D3D"/>
<path fill-rule="evenodd" clip-rule="evenodd" d="M10.5131 351.787C4.79668 351.787 0.162506 347.153 0.162506 341.442C0.162506 335.726 4.79668 331.093 10.5131 331.093C16.2264 331.093 20.8637 335.726 20.8637 341.442C20.8637 347.153 16.2264 351.787 10.5131 351.787Z" fill="#3D3D3D"/>
<path fill-rule="evenodd" clip-rule="evenodd" d="M256.34 20.6933C250.627 20.6933 245.99 16.0609 245.99 10.3467C245.99 4.6324 250.627 0 256.34 0C262.057 0 266.691 4.6324 266.691 10.3467C266.691 16.0609 262.057 20.6933 256.34 20.6933Z" fill="#3D3D3D"/>
<path fill-rule="evenodd" clip-rule="evenodd" d="M256.34 103.467C250.627 103.467 245.99 98.8342 245.99 93.12C245.99 87.4057 250.627 82.7733 256.34 82.7733C262.057 82.7733 266.691 87.4057 266.691 93.12C266.691 98.8342 262.057 103.467 256.34 103.467Z" fill="#3D3D3D"/>
<path fill-rule="evenodd" clip-rule="evenodd" d="M256.34 186.24C250.627 186.24 245.99 181.608 245.99 175.893C245.99 170.179 250.627 165.547 256.34 165.547C262.057 165.547 266.691 170.179 266.691 175.893C266.691 181.608 262.057 186.24 256.34 186.24Z" fill="#3D3D3D"/>
<path fill-rule="evenodd" clip-rule="evenodd" d="M256.34 269.013C250.627 269.013 245.99 264.383 245.99 258.668C245.99 252.953 250.627 248.32 256.34 248.32C262.057 248.32 266.691 252.953 266.691 258.668C266.691 264.383 262.057 269.013 256.34 269.013Z" fill="#3D3D3D"/>
<path fill-rule="evenodd" clip-rule="evenodd" d="M256.34 351.787C250.627 351.787 245.99 347.153 245.99 341.442C245.99 335.726 250.627 331.093 256.34 331.093C262.057 331.093 266.691 335.726 266.691 341.442C266.691 347.153 262.057 351.787 256.34 351.787Z" fill="#3D3D3D"/>
<path fill-rule="evenodd" clip-rule="evenodd" d="M625.081 20.6933C619.365 20.6933 614.731 16.0609 614.731 10.3467C614.731 4.6324 619.365 0 625.081 0C630.795 0 635.432 4.6324 635.432 10.3467C635.432 16.0609 630.795 20.6933 625.081 20.6933Z" fill="#3D3D3D"/>
<path fill-rule="evenodd" clip-rule="evenodd" d="M625.081 103.467C619.365 103.467 614.731 98.8342 614.731 93.12C614.731 87.4057 619.365 82.7733 625.081 82.7733C630.795 82.7733 635.432 87.4057 635.432 93.12C635.432 98.8342 630.795 103.467 625.081 103.467Z" fill="#3D3D3D"/>
<path fill-rule="evenodd" clip-rule="evenodd" d="M625.081 186.24C619.365 186.24 614.731 181.608 614.731 175.893C614.731 170.179 619.365 165.547 625.081 165.547C630.795 165.547 635.432 170.179 635.432 175.893C635.432 181.608 630.795 186.24 625.081 186.24Z" fill="#3D3D3D"/>
<path fill-rule="evenodd" clip-rule="evenodd" d="M625.081 269.013C619.365 269.013 614.731 264.383 614.731 258.668C614.731 252.953 619.365 248.32 625.081 248.32C630.795 248.32 635.432 252.953 635.432 258.668C635.432 264.383 630.795 269.013 625.081 269.013Z" fill="#3D3D3D"/>
<path fill-rule="evenodd" clip-rule="evenodd" d="M625.081 351.787C619.365 351.787 614.731 347.153 614.731 341.442C614.731 335.726 619.365 331.093 625.081 331.093C630.795 331.093 635.432 335.726 635.432 341.442C635.432 347.153 630.795 351.787 625.081 351.787Z" fill="#3D3D3D"/>
<path fill-rule="evenodd" clip-rule="evenodd" d="M502.168 20.6933C496.451 20.6933 491.817 16.0609 491.817 10.3467C491.817 4.6324 496.451 0 502.168 0C507.881 0 512.518 4.6324 512.518 10.3467C512.518 16.0609 507.881 20.6933 502.168 20.6933Z" fill="#3D3D3D"/>
<path fill-rule="evenodd" clip-rule="evenodd" d="M502.168 186.24C496.451 186.24 491.817 181.608 491.817 175.893C491.817 170.179 496.451 165.547 502.168 165.547C507.881 165.547 512.518 170.179 512.518 175.893C512.518 181.608 507.881 186.24 502.168 186.24Z" fill="#3D3D3D"/>
<path fill-rule="evenodd" clip-rule="evenodd" d="M502.168 269.013C496.451 269.013 491.817 264.383 491.817 258.668C491.817 252.953 496.451 248.32 502.168 248.32C507.881 248.32 512.518 252.953 512.518 258.668C512.518 264.383 507.881 269.013 502.168 269.013Z" fill="#3D3D3D"/>
<path fill-rule="evenodd" clip-rule="evenodd" d="M502.168 351.787C496.451 351.787 491.817 347.153 491.817 341.442C491.817 335.726 496.451 331.093 502.168 331.093C507.881 331.093 512.518 335.726 512.518 341.442C512.518 347.153 507.881 351.787 502.168 351.787Z" fill="#3D3D3D"/>
<path fill-rule="evenodd" clip-rule="evenodd" d="M379.254 20.6933C373.541 20.6933 368.903 16.0609 368.903 10.3467C368.903 4.6324 373.541 0 379.254 0C384.97 0 389.605 4.6324 389.605 10.3467C389.605 16.0609 384.97 20.6933 379.254 20.6933Z" fill="#3D3D3D"/>
<path fill-rule="evenodd" clip-rule="evenodd" d="M379.254 103.467C373.541 103.467 368.903 98.8342 368.903 93.12C368.903 87.4057 373.541 82.7733 379.254 82.7733C384.97 82.7733 389.605 87.4057 389.605 93.12C389.605 98.8342 384.97 103.467 379.254 103.467Z" fill="#3D3D3D"/>
<path fill-rule="evenodd" clip-rule="evenodd" d="M379.254 186.24C373.541 186.24 368.903 181.608 368.903 175.893C368.903 170.179 373.541 165.547 379.254 165.547C384.97 165.547 389.605 170.179 389.605 175.893C389.605 181.608 384.97 186.24 379.254 186.24Z" fill="#3D3D3D"/>
<path fill-rule="evenodd" clip-rule="evenodd" d="M379.254 269.013C373.541 269.013 368.903 264.383 368.903 258.668C368.903 252.953 373.541 248.32 379.254 248.32C384.97 248.32 389.605 252.953 389.605 258.668C389.605 264.383 384.97 269.013 379.254 269.013Z" fill="#3D3D3D"/>
<path fill-rule="evenodd" clip-rule="evenodd" d="M379.254 351.787C373.541 351.787 368.903 347.153 368.903 341.442C368.903 335.726 373.541 331.093 379.254 331.093C384.97 331.093 389.605 335.726 389.605 341.442C389.605 347.153 384.97 351.787 379.254 351.787Z" fill="#3D3D3D"/>
<path fill-rule="evenodd" clip-rule="evenodd" d="M747.995 20.6933C742.282 20.6933 737.644 16.0609 737.644 10.3467C737.644 4.6324 742.282 0 747.995 0C753.711 0 758.345 4.6324 758.345 10.3467C758.345 16.0609 753.711 20.6933 747.995 20.6933Z" fill="#3D3D3D"/>
<path fill-rule="evenodd" clip-rule="evenodd" d="M747.995 103.467C742.282 103.467 737.644 98.8342 737.644 93.12C737.644 87.4057 742.282 82.7733 747.995 82.7733C753.711 82.7733 758.345 87.4057 758.345 93.12C758.345 98.8342 753.711 103.467 747.995 103.467Z" fill="#3D3D3D"/>
<path fill-rule="evenodd" clip-rule="evenodd" d="M747.995 186.24C742.282 186.24 737.644 181.608 737.644 175.893C737.644 170.179 742.282 165.547 747.995 165.547C753.711 165.547 758.345 170.179 758.345 175.893C758.345 181.608 753.711 186.24 747.995 186.24Z" fill="#3D3D3D"/>
<path fill-rule="evenodd" clip-rule="evenodd" d="M747.995 269.013C742.282 269.013 737.644 264.383 737.644 258.668C737.644 252.953 742.282 248.32 747.995 248.32C753.711 248.32 758.345 252.953 758.345 258.668C758.345 264.383 753.711 269.013 747.995 269.013Z" fill="#3D3D3D"/>
<path fill-rule="evenodd" clip-rule="evenodd" d="M747.995 351.787C742.282 351.787 737.644 347.153 737.644 341.442C737.644 335.726 742.282 331.093 747.995 331.093C753.711 331.093 758.345 335.726 758.345 341.442C758.345 347.153 753.711 351.787 747.995 351.787Z" fill="#3D3D3D"/>
<path fill-rule="evenodd" clip-rule="evenodd" d="M1116.74 20.6933C1111.02 20.6933 1106.39 16.0609 1106.39 10.3467C1106.39 4.6324 1111.02 0 1116.74 0C1122.45 0 1127.09 4.6324 1127.09 10.3467C1127.09 16.0609 1122.45 20.6933 1116.74 20.6933Z" fill="#3D3D3D"/>
<path fill-rule="evenodd" clip-rule="evenodd" d="M1116.74 103.467C1111.02 103.467 1106.39 98.8342 1106.39 93.12C1106.39 87.4057 1111.02 82.7733 1116.74 82.7733C1122.45 82.7733 1127.09 87.4057 1127.09 93.12C1127.09 98.8342 1122.45 103.467 1116.74 103.467Z" fill="#3D3D3D"/>
<path fill-rule="evenodd" clip-rule="evenodd" d="M1116.74 186.24C1111.02 186.24 1106.39 181.608 1106.39 175.893C1106.39 170.179 1111.02 165.547 1116.74 165.547C1122.45 165.547 1127.09 170.179 1127.09 175.893C1127.09 181.608 1122.45 186.24 1116.74 186.24Z" fill="#3D3D3D"/>
<path fill-rule="evenodd" clip-rule="evenodd" d="M1116.74 269.013C1111.02 269.013 1106.39 264.383 1106.39 258.668C1106.39 252.953 1111.02 248.32 1116.74 248.32C1122.45 248.32 1127.09 252.953 1127.09 258.668C1127.09 264.383 1122.45 269.013 1116.74 269.013Z" fill="#3D3D3D"/>
<path fill-rule="evenodd" clip-rule="evenodd" d="M1116.74 351.787C1111.02 351.787 1106.39 347.153 1106.39 341.442C1106.39 335.726 1111.02 331.093 1116.74 331.093C1122.45 331.093 1127.09 335.726 1127.09 341.442C1127.09 347.153 1122.45 351.787 1116.74 351.787Z" fill="#3D3D3D"/>
<path fill-rule="evenodd" clip-rule="evenodd" d="M993.822 20.6933C988.106 20.6933 983.471 16.0609 983.471 10.3467C983.471 4.6324 988.106 0 993.822 0C999.535 0 1004.17 4.6324 1004.17 10.3467C1004.17 16.0609 999.535 20.6933 993.822 20.6933Z" fill="#3D3D3D"/>
<path fill-rule="evenodd" clip-rule="evenodd" d="M993.822 103.467C988.106 103.467 983.471 98.8342 983.471 93.12C983.471 87.4057 988.106 82.7733 993.822 82.7733C999.535 82.7733 1004.17 87.4057 1004.17 93.12C1004.17 98.8342 999.535 103.467 993.822 103.467Z" fill="#3D3D3D"/>
<path fill-rule="evenodd" clip-rule="evenodd" d="M993.822 186.24C988.106 186.24 983.471 181.608 983.471 175.893C983.471 170.179 988.106 165.547 993.822 165.547C999.535 165.547 1004.17 170.179 1004.17 175.893C1004.17 181.608 999.535 186.24 993.822 186.24Z" fill="#3D3D3D"/>
<path fill-rule="evenodd" clip-rule="evenodd" d="M993.822 269.013C988.106 269.013 983.471 264.383 983.471 258.668C983.471 252.953 988.106 248.32 993.822 248.32C999.535 248.32 1004.17 252.953 1004.17 258.668C1004.17 264.383 999.535 269.013 993.822 269.013Z" fill="#3D3D3D"/>
<path fill-rule="evenodd" clip-rule="evenodd" d="M993.822 351.787C988.106 351.787 983.471 347.153 983.471 341.442C983.471 335.726 988.106 331.093 993.822 331.093C999.535 331.093 1004.17 335.726 1004.17 341.442C1004.17 347.153 999.535 351.787 993.822 351.787Z" fill="#3D3D3D"/>
<path fill-rule="evenodd" clip-rule="evenodd" d="M870.908 20.6933C865.195 20.6933 860.558 16.0609 860.558 10.3467C860.558 4.6324 865.195 0 870.908 0C876.625 0 881.259 4.6324 881.259 10.3467C881.259 16.0609 876.625 20.6933 870.908 20.6933Z" fill="#3D3D3D"/>
<path fill-rule="evenodd" clip-rule="evenodd" d="M870.908 103.467C865.195 103.467 860.558 98.8342 860.558 93.12C860.558 87.4057 865.195 82.7733 870.908 82.7733C876.625 82.7733 881.259 87.4057 881.259 93.12C881.259 98.8342 876.625 103.467 870.908 103.467Z" fill="#3D3D3D"/>
<path fill-rule="evenodd" clip-rule="evenodd" d="M870.908 186.24C865.195 186.24 860.558 181.608 860.558 175.893C860.558 170.179 865.195 165.547 870.908 165.547C876.625 165.547 881.259 170.179 881.259 175.893C881.259 181.608 876.625 186.24 870.908 186.24Z" fill="#3D3D3D"/>
<path fill-rule="evenodd" clip-rule="evenodd" d="M870.908 269.013C865.195 269.013 860.558 264.383 860.558 258.668C860.558 252.953 865.195 248.32 870.908 248.32C876.625 248.32 881.259 252.953 881.259 258.668C881.259 264.383 876.625 269.013 870.908 269.013Z" fill="#3D3D3D"/>
<path fill-rule="evenodd" clip-rule="evenodd" d="M870.908 351.787C865.195 351.787 860.558 347.153 860.558 341.442C860.558 335.726 865.195 331.093 870.908 331.093C876.625 331.093 881.259 335.726 881.259 341.442C881.259 347.153 876.625 351.787 870.908 351.787Z" fill="#3D3D3D"/>
<path fill-rule="evenodd" clip-rule="evenodd" d="M1239.65 20.6933C1233.94 20.6933 1229.3 16.0609 1229.3 10.3467C1229.3 4.6324 1233.94 0 1239.65 0C1245.37 0 1250 4.6324 1250 10.3467C1250 16.0609 1245.37 20.6933 1239.65 20.6933Z" fill="#3D3D3D"/>
<path fill-rule="evenodd" clip-rule="evenodd" d="M1239.65 103.467C1233.94 103.467 1229.3 98.8342 1229.3 93.12C1229.3 87.4057 1233.94 82.7733 1239.65 82.7733C1245.37 82.7733 1250 87.4057 1250 93.12C1250 98.8342 1245.37 103.467 1239.65 103.467Z" fill="#3D3D3D"/>
<path fill-rule="evenodd" clip-rule="evenodd" d="M1239.65 186.24C1233.94 186.24 1229.3 181.608 1229.3 175.893C1229.3 170.179 1233.94 165.547 1239.65 165.547C1245.37 165.547 1250 170.179 1250 175.893C1250 181.608 1245.37 186.24 1239.65 186.24Z" fill="#3D3D3D"/>
<path fill-rule="evenodd" clip-rule="evenodd" d="M1239.65 269.013C1233.94 269.013 1229.3 264.383 1229.3 258.668C1229.3 252.953 1233.94 248.32 1239.65 248.32C1245.37 248.32 1250 252.953 1250 258.668C1250 264.383 1245.37 269.013 1239.65 269.013Z" fill="#3D3D3D"/>
<path fill-rule="evenodd" clip-rule="evenodd" d="M1239.65 351.787C1233.94 351.787 1229.3 347.153 1229.3 341.442C1229.3 335.726 1233.94 331.093 1239.65 331.093C1245.37 331.093 1250 335.726 1250 341.442C1250 347.153 1245.37 351.787 1239.65 351.787Z" fill="#3D3D3D"/>
<path fill-rule="evenodd" clip-rule="evenodd" d="M971.04 177.548C971.04 194.611 984.878 208.445 1001.95 208.445C1019.02 208.445 1032.86 194.611 1032.86 177.548C1032.86 160.483 1019.02 146.65 1001.95 146.65C984.878 146.65 971.04 160.483 971.04 177.548Z" fill="#FF7171"/>
<mask id="mask0" mask-type="alpha" maskUnits="userSpaceOnUse" x="971" y="146" width="62" height="63">
<path fill-rule="evenodd" clip-rule="evenodd" d="M971.04 177.548C971.04 194.611 984.878 208.445 1001.95 208.445C1019.02 208.445 1032.86 194.611 1032.86 177.548C1032.86 160.483 1019.02 146.65 1001.95 146.65C984.878 146.65 971.04 160.483 971.04 177.548Z" fill="white"/>
</mask>
<g mask="url(#mask0)">
<path fill-rule="evenodd" clip-rule="evenodd" d="M1002.88 118.653L940.653 180.879L943.482 183.707L1005.71 121.482L1002.88 118.653ZM1009.24 125.017L947.017 187.243L949.846 190.071L1012.07 127.846L1009.24 125.017ZM952.674 192.899L1014.9 130.674L1017.73 133.503L955.503 195.728L952.674 192.899ZM1020.56 136.331L958.331 198.556L961.159 201.385L1023.38 139.159L1020.56 136.331ZM963.988 204.213L1026.21 141.988L1029.04 144.816L966.816 207.042L963.988 204.213ZM1031.87 147.645L969.645 209.87L972.473 212.698L1034.7 150.473L1031.87 147.645ZM975.302 215.527L1037.53 153.301L1040.36 156.13L978.13 218.355L975.302 215.527ZM1043.89 159.665L981.666 221.891L984.494 224.719L1046.72 162.494L1043.89 159.665ZM987.322 227.548L1049.55 165.322L1052.38 168.151L990.151 230.376L987.322 227.548ZM1055.2 170.979L992.979 233.205L995.808 236.033L1058.03 173.808L1055.2 170.979ZM998.636 238.861L1060.86 176.636L1063.69 179.464L1001.46 241.69L998.636 238.861ZM1066.52 182.293L1004.29 244.518L1007.12 247.347L1069.35 185.121L1066.52 182.293Z" fill="#FFF0AE"/>
</g>
<path d="M962 176.897C962 193.96 975.838 207.794 992.907 207.794C1009.98 207.794 1023.82 193.96 1023.82 176.897C1023.82 159.833 1009.98 146 992.907 146C975.838 146 962 159.833 962 176.897" stroke="#3D3D3D" stroke-width="4"/>
<path fill-rule="evenodd" clip-rule="evenodd" d="M235 266.897C235 283.96 248.838 297.794 265.907 297.794C282.978 297.794 296.817 283.96 296.817 266.897C296.817 249.833 282.978 236 265.907 236C248.838 236 235 249.833 235 266.897Z" fill="#FFF0AE"/>
<path d="M225 266.482C225 283.545 238.838 297.379 255.907 297.379C272.978 297.379 286.817 283.545 286.817 266.482C286.817 249.417 272.978 235.584 255.907 235.584C238.838 235.584 225 249.417 225 266.482" stroke="#3D3D3D" stroke-width="4"/>
<path fill-rule="evenodd" clip-rule="evenodd" d="M482 96.8972C482 113.96 495.838 127.794 512.907 127.794C529.978 127.794 543.817 113.96 543.817 96.8972C543.817 79.8326 529.978 66 512.907 66C495.838 66 482 79.8326 482 96.8972Z" fill="#3D3D3D"/>
<path d="M482 96.8972C482 113.96 495.838 127.794 512.907 127.794C529.978 127.794 543.817 113.96 543.817 96.8972C543.817 79.8326 529.978 66 512.907 66C495.838 66 482 79.8326 482 96.8972" stroke="#3D3D3D" stroke-width="4"/>
<path fill-rule="evenodd" clip-rule="evenodd" d="M471.484 96.8972C471.484 113.96 485.322 127.794 502.391 127.794C519.462 127.794 533.301 113.96 533.301 96.8972C533.301 79.8326 519.462 66 502.391 66C485.322 66 471.484 79.8326 471.484 96.8972Z" fill="white"/>
<path d="M471.484 96.8972C471.484 113.96 485.322 127.794 502.391 127.794C519.462 127.794 533.301 113.96 533.301 96.8972C533.301 79.8326 519.462 66 502.391 66C485.322 66 471.484 79.8326 471.484 96.8972" stroke="#3D3D3D" stroke-width="4"/>
</svg>
