<svg width="340" height="678" viewBox="0 0 340 678" fill="none" xmlns="http://www.w3.org/2000/svg">
<path opacity="0.0714286" d="M170 677.735C256.376 677.735 326.397 666.465 326.397 652.563C326.397 638.661 256.376 627.391 170 627.391C83.6248 627.391 13.6035 638.661 13.6035 652.563C13.6035 666.465 83.6248 677.735 170 677.735Z" fill="#3D3D3D"/>
<path d="M199.159 350.894H140.842C88.0909 350.894 45.4131 307.969 45.4131 255.239V112.42H294.588V255.239C294.588 307.969 251.91 350.894 199.159 350.894Z" fill="white"/>
<path d="M104.393 258.684V112.42H45.4131V255.239C45.4131 307.969 88.0909 350.894 140.842 350.894H175.567C134.612 340.162 104.393 302.934 104.393 258.684Z" fill="white"/>
<path fill-rule="evenodd" clip-rule="evenodd" d="M199.159 350.894H140.842C88.0909 350.894 45.4131 307.969 45.4131 255.239V112.42H294.588V255.239C294.588 307.969 251.91 350.894 199.159 350.894Z" stroke="#3D3D3D" stroke-width="6" stroke-linecap="round" stroke-linejoin="round"/>
<path d="M277.887 23.39C206.846 7.75675 133.154 7.75675 61.9803 23.39C52.3049 25.5098 45.2803 34.1213 45.2803 44.0577V112.155C127.057 133.088 212.678 133.088 294.455 112.155V44.0577C294.587 34.2538 287.695 25.6423 277.887 23.39Z" fill="white"/>
<path d="M277.888 23.39C275.502 22.8601 273.116 22.3301 270.73 21.8002V117.72C278.683 116.13 286.635 114.275 294.588 112.155V44.0577C294.588 34.2538 287.696 25.6423 277.888 23.39Z" fill="white"/>
<path d="M104.393 50.947C104.393 37.566 108.369 25.1123 115.261 14.646C97.3686 16.6333 79.6083 19.548 62.1131 23.39C52.4377 25.5098 45.4131 34.1213 45.4131 44.0577V112.155C64.8964 117.19 84.6448 120.899 104.393 123.549V50.947V50.947Z" fill="white"/>
<path d="M305.19 240.931H294.587V169.389H305.19C313.938 169.389 321.095 176.941 321.095 185.685V225.43C321.095 234.174 313.938 240.931 305.19 240.931Z" fill="white"/>
<path fill-rule="evenodd" clip-rule="evenodd" d="M305.19 240.931H294.587V169.389H305.19C313.938 169.389 321.095 176.941 321.095 185.685V225.43C321.095 234.174 313.938 240.931 305.19 240.931Z" stroke="#3D3D3D" stroke-width="6" stroke-linecap="round" stroke-linejoin="round"/>
<path d="M34.8091 240.931H45.4122V169.389H34.8091C26.0614 169.389 18.9043 176.941 18.9043 185.685V225.43C18.9043 234.174 26.0614 240.931 34.8091 240.931Z" fill="white"/>
<path fill-rule="evenodd" clip-rule="evenodd" d="M34.8091 240.931H45.4122V169.389H34.8091C26.0614 169.389 18.9043 176.941 18.9043 185.685V225.43C18.9043 234.174 26.0614 240.931 34.8091 240.931Z" stroke="#3D3D3D" stroke-width="6" stroke-linecap="round" stroke-linejoin="round"/>
<path d="M161.65 311.546C163.506 296.575 177.158 285.843 192.135 287.698C195.846 288.096 199.424 289.421 202.473 291.143" stroke="#3D3D3D" stroke-width="6" stroke-linecap="round" stroke-linejoin="round"/>
<path d="M94.4521 512.923V632.16H166.024V569.495C166.024 565.785 169.072 562.87 172.651 562.87V562.87V562.87V562.87C176.362 562.87 179.278 565.785 179.278 569.495V632.16H250.849V512.923H94.4521Z" fill="#3D3D3D"/>
<path fill-rule="evenodd" clip-rule="evenodd" d="M94.4521 512.923V632.16H166.024V569.495C166.024 565.785 169.072 562.87 172.651 562.87V562.87V562.87V562.87C176.362 562.87 179.278 565.785 179.278 569.495V632.16H250.849V512.923H94.4521Z" stroke="#3D3D3D" stroke-width="6" stroke-linecap="round" stroke-linejoin="round"/>
<path d="M274.442 563.4C287.984 563.4 298.962 552.427 298.962 538.89C298.962 525.354 287.984 514.381 274.442 514.381C260.9 514.381 249.922 525.354 249.922 538.89C249.922 552.427 260.9 563.4 274.442 563.4Z" fill="white"/>
<path fill-rule="evenodd" clip-rule="evenodd" d="M274.442 563.4C287.984 563.4 298.962 552.427 298.962 538.89C298.962 525.354 287.984 514.381 274.442 514.381C260.9 514.381 249.922 525.354 249.922 538.89C249.922 552.427 260.9 563.4 274.442 563.4Z" stroke="#3D3D3D" stroke-width="6" stroke-linecap="round" stroke-linejoin="round"/>
<path d="M121.491 251.53C144.915 251.53 163.904 232.549 163.904 209.134C163.904 185.72 144.915 166.739 121.491 166.739C98.0669 166.739 79.0781 185.72 79.0781 209.134C79.0781 232.549 98.0669 251.53 121.491 251.53Z" fill="white"/>
<path fill-rule="evenodd" clip-rule="evenodd" d="M121.491 251.53C144.915 251.53 163.904 232.549 163.904 209.134C163.904 185.72 144.915 166.739 121.491 166.739C98.0669 166.739 79.0781 185.72 79.0781 209.134C79.0781 232.549 98.0669 251.53 121.491 251.53Z" stroke="#3D3D3D" stroke-width="6" stroke-linecap="round" stroke-linejoin="round"/>
<path d="M143.095 229.007C153.343 229.007 161.65 220.703 161.65 210.459C161.65 200.216 153.343 191.911 143.095 191.911C132.847 191.911 124.539 200.216 124.539 210.459C124.539 220.703 132.847 229.007 143.095 229.007Z" fill="#3D3D3D"/>
<path d="M149.722 217.084C153.382 217.084 156.349 214.118 156.349 210.459C156.349 206.801 153.382 203.835 149.722 203.835C146.062 203.835 143.095 206.801 143.095 210.459C143.095 214.118 146.062 217.084 149.722 217.084Z" fill="white"/>
<path d="M166.024 632.16H94.4521V642.759C94.4521 647.131 98.0307 650.708 102.405 650.708H158.071C162.445 650.708 166.024 647.131 166.024 642.759V632.16Z" fill="white"/>
<path d="M187.23 650.708H242.896C247.27 650.708 250.849 647.131 250.849 642.759V632.16H179.277V642.759C179.277 647.131 182.856 650.708 187.23 650.708Z" fill="white"/>
<path fill-rule="evenodd" clip-rule="evenodd" d="M166.024 632.16H94.4521V642.759C94.4521 647.131 98.0307 650.708 102.405 650.708H158.071C162.445 650.708 166.024 647.131 166.024 642.759V632.16Z" stroke="#3D3D3D" stroke-width="6" stroke-linecap="round" stroke-linejoin="round"/>
<path fill-rule="evenodd" clip-rule="evenodd" d="M187.23 650.708H242.896C247.27 650.708 250.849 647.131 250.849 642.759V632.16H179.277V642.759C179.277 647.131 182.856 650.708 187.23 650.708Z" stroke="#3D3D3D" stroke-width="6" stroke-linecap="round" stroke-linejoin="round"/>
<path d="M71.1257 565.785C84.8141 565.785 95.9107 554.693 95.9107 541.01C95.9107 527.327 84.8141 516.235 71.1257 516.235C57.4374 516.235 46.3408 527.327 46.3408 541.01C46.3408 554.693 57.4374 565.785 71.1257 565.785Z" fill="white"/>
<path fill-rule="evenodd" clip-rule="evenodd" d="M71.1257 565.785C84.8141 565.785 95.9107 554.693 95.9107 541.01C95.9107 527.327 84.8141 516.235 71.1257 516.235C57.4374 516.235 46.3408 527.327 46.3408 541.01C46.3408 554.693 57.4374 565.785 71.1257 565.785Z" stroke="#3D3D3D" stroke-width="6" stroke-linecap="round" stroke-linejoin="round"/>
<path d="M299.094 538.36L289.021 423.231C287.165 402.563 270.73 386.665 250.849 384.148C250.849 384.148 250.849 384.148 250.849 384.015C198.894 377.523 146.408 377.523 94.4525 384.015C94.4525 384.015 94.4525 384.015 94.4525 384.148C74.439 386.532 58.1366 402.696 56.281 423.496L46.208 538.625L93.7898 542.732L95.1152 527.232C146.541 533.723 198.629 533.723 250.054 527.232L251.379 542.6L299.094 538.36Z" fill="white"/>
<path fill-rule="evenodd" clip-rule="evenodd" d="M299.094 538.36L289.021 423.231C287.165 402.563 270.73 386.665 250.849 384.148C250.849 384.148 250.849 384.148 250.849 384.015C198.894 377.523 146.408 377.523 94.4525 384.015C94.4525 384.015 94.4525 384.015 94.4525 384.148C74.439 386.532 58.1366 402.696 56.281 423.496L46.208 538.625L93.7898 542.732L95.1152 527.232C143.757 535.048 198.496 535.446 250.054 527.232L251.379 542.6L299.094 538.36Z" stroke="#3D3D3D" stroke-width="6" stroke-linecap="round" stroke-linejoin="round"/>
<path d="M93.79 542.733L102.803 439.659" stroke="#3D3D3D" stroke-width="6" stroke-linecap="round" stroke-linejoin="round"/>
<path d="M250.186 527.232L242.499 439.659" stroke="#3D3D3D" stroke-width="6" stroke-linecap="round" stroke-linejoin="round"/>
<path d="M280.273 13.0562C244.09 5.10705 207.111 1 170 1C133.021 1 95.9104 4.97456 59.727 13.0562C45.2802 16.2358 34.8096 29.3519 34.8096 44.0577V68.5675L42.762 69.8924C52.5699 71.4822 62.5104 72.807 72.3183 74.1319L80.1381 48.5622H90.4762L91.9342 76.2517C100.947 77.1791 110.092 77.8415 119.237 78.3714L122.286 48.5622L126.394 78.9014C137.925 79.5638 149.456 79.9613 160.987 79.9613L166.024 51.2119L170 80.0937L189.218 75.4567L197.436 35.9761L220.763 78.3714C230.438 77.709 240.114 77.0466 249.789 75.9867V45.1176L256.681 43.7928L268.079 73.8669C273.911 73.2045 279.875 72.4096 285.707 71.4822C285.044 57.5712 283.984 31.6041 286.105 35.7112C288.225 39.8182 295.383 59.1611 299.094 69.3624L305.058 68.435V43.9252C305.191 29.3519 294.72 16.2358 280.273 13.0562Z" fill="#3D3D3D"/>
<path fill-rule="evenodd" clip-rule="evenodd" d="M280.273 13.0562C244.09 5.10705 207.111 1 170 1C133.021 1 95.9104 4.97456 59.727 13.0562C45.2802 16.2358 34.8096 29.3519 34.8096 44.0577V68.5675L42.762 69.8924C52.5699 71.4822 62.5104 72.807 72.3183 74.1319L80.1381 48.5622H90.4762L91.9342 76.2517C100.947 77.1791 110.092 77.8415 119.237 78.3714L122.286 48.5622L126.394 78.9014C137.925 79.5638 149.456 79.9613 160.987 79.9613L166.024 51.2119L170 80.0937L189.218 75.4567L197.436 35.9761L220.763 78.3714C230.438 77.709 240.114 77.0466 249.789 75.9867V45.1176L256.681 43.7928L268.079 73.8669C273.911 73.2045 279.875 72.4096 285.707 71.4822C285.044 57.5712 283.984 31.6041 286.105 35.7112C288.225 39.8182 295.383 59.1611 299.094 69.3624L305.058 68.435V43.9252C305.191 29.3519 294.72 16.2358 280.273 13.0562Z" stroke="#3D3D3D" stroke-width="2" stroke-linecap="round" stroke-linejoin="round"/>
<path fill-rule="evenodd" clip-rule="evenodd" d="M277.887 25.7748C206.846 10.4065 133.154 10.4065 61.9803 25.7748C52.3049 27.8945 45.2803 36.2411 45.2803 46.045V112.553C127.057 133.088 212.678 133.088 294.455 112.553V46.045C294.587 36.3736 287.695 27.8945 277.887 25.7748Z" stroke="#3D3D3D" stroke-width="6" stroke-linecap="round" stroke-linejoin="round"/>
<path d="M85.8377 141.567H85.0425C79.4758 141.567 74.8369 137.062 74.8369 131.366V109.373C74.8369 103.809 79.3433 99.1716 85.0425 99.1716H85.8377C91.4044 99.1716 96.0433 103.676 96.0433 109.373V131.366C96.0433 137.062 91.4044 141.567 85.8377 141.567Z" fill="white"/>
<path fill-rule="evenodd" clip-rule="evenodd" d="M85.8377 141.567H85.0425C79.4758 141.567 74.8369 137.062 74.8369 131.366V109.373C74.8369 103.809 79.3433 99.1716 85.0425 99.1716H85.8377C91.4044 99.1716 96.0433 103.676 96.0433 109.373V131.366C96.0433 137.062 91.4044 141.567 85.8377 141.567Z" stroke="#3D3D3D" stroke-width="6" stroke-linecap="round" stroke-linejoin="round"/>
<path d="M138.19 145.806H137.395C131.828 145.806 127.189 141.302 127.189 135.605V113.613C127.189 108.048 131.696 103.411 137.395 103.411H138.19C143.757 103.411 148.396 107.916 148.396 113.613V135.605C148.396 141.302 143.757 145.806 138.19 145.806Z" fill="white"/>
<path fill-rule="evenodd" clip-rule="evenodd" d="M138.19 145.806H137.395C131.828 145.806 127.189 141.302 127.189 135.605V113.613C127.189 108.048 131.696 103.411 137.395 103.411H138.19C143.757 103.411 148.396 107.916 148.396 113.613V135.605C148.396 141.302 143.757 145.806 138.19 145.806Z" stroke="#3D3D3D" stroke-width="6" stroke-linecap="round" stroke-linejoin="round"/>
<path d="M192.399 143.554H191.604C186.037 143.554 181.398 139.05 181.398 133.353V111.36C181.398 105.796 185.905 101.159 191.604 101.159H192.399C197.966 101.159 202.605 105.663 202.605 111.36V133.353C202.605 139.05 197.966 143.554 192.399 143.554Z" fill="white"/>
<path fill-rule="evenodd" clip-rule="evenodd" d="M192.399 143.554H191.604C186.037 143.554 181.398 139.05 181.398 133.353V111.36C181.398 105.796 185.905 101.159 191.604 101.159H192.399C197.966 101.159 202.605 105.663 202.605 111.36V133.353C202.605 139.05 197.966 143.554 192.399 143.554Z" stroke="#3D3D3D" stroke-width="6" stroke-linecap="round" stroke-linejoin="round"/>
<path d="M248.728 143.554H247.933C242.366 143.554 237.728 139.05 237.728 133.353V111.36C237.728 105.796 242.234 101.159 247.933 101.159H248.728C254.295 101.159 258.934 105.663 258.934 111.36V133.353C258.934 139.05 254.295 143.554 248.728 143.554Z" fill="white"/>
<path fill-rule="evenodd" clip-rule="evenodd" d="M248.728 143.554H247.933C242.366 143.554 237.728 139.05 237.728 133.353V111.36C237.728 105.796 242.234 101.159 247.933 101.159H248.728C254.295 101.159 258.934 105.663 258.934 111.36V133.353C258.934 139.05 254.295 143.554 248.728 143.554Z" stroke="#3D3D3D" stroke-width="6" stroke-linecap="round" stroke-linejoin="round"/>
<rect x="294.587" y="104.471" width="21.2063" height="15.8982" stroke="#3D3D3D" stroke-width="6" stroke-linecap="round" stroke-linejoin="round"/>
<path fill-rule="evenodd" clip-rule="evenodd" d="M328.518 133.618H324.276C319.638 133.618 315.794 129.776 315.794 125.139V99.7016C315.794 95.0646 319.638 91.2225 324.276 91.2225H328.518C333.157 91.2225 337 95.0646 337 99.7016V125.139C337 129.776 333.157 133.618 328.518 133.618Z" stroke="#3D3D3D" stroke-width="6" stroke-linecap="round" stroke-linejoin="round"/>
<path fill-rule="evenodd" clip-rule="evenodd" d="M45.4131 120.369L24.2067 120.369L24.2067 104.471L45.4131 104.471L45.4131 120.369Z" stroke="#3D3D3D" stroke-width="6" stroke-linecap="round" stroke-linejoin="round"/>
<path fill-rule="evenodd" clip-rule="evenodd" d="M11.4825 133.618H15.7238C20.3627 133.618 24.2063 129.776 24.2063 125.139V99.7016C24.2063 95.0646 20.3627 91.2225 15.7238 91.2225H11.4825C6.84365 91.2225 3 95.0646 3 99.7016V125.139C3 129.776 6.84365 133.618 11.4825 133.618Z" stroke="#3D3D3D" stroke-width="6" stroke-linecap="round" stroke-linejoin="round"/>
<path d="M179.543 398.588H165.627C154.891 398.588 146.011 389.844 146.011 378.981V350.894H199.027V378.981C199.159 389.844 190.412 398.588 179.543 398.588Z" fill="white"/>
<path fill-rule="evenodd" clip-rule="evenodd" d="M179.543 398.588H165.627C154.891 398.588 146.011 389.844 146.011 378.981V350.894H199.027V378.981C199.159 389.844 190.412 398.588 179.543 398.588Z" stroke="#3D3D3D" stroke-width="6" stroke-linecap="round" stroke-linejoin="round"/>
<path d="M215.593 240.931C235.357 240.931 251.379 224.916 251.379 205.16C251.379 185.404 235.357 169.389 215.593 169.389C195.829 169.389 179.808 185.404 179.808 205.16C179.808 224.916 195.829 240.931 215.593 240.931Z" fill="white"/>
<path fill-rule="evenodd" clip-rule="evenodd" d="M215.593 240.931C235.357 240.931 251.379 224.916 251.379 205.16C251.379 185.404 235.357 169.389 215.593 169.389C195.829 169.389 179.808 185.404 179.808 205.16C179.808 224.916 195.829 240.931 215.593 240.931Z" stroke="#3D3D3D" stroke-width="6" stroke-linecap="round" stroke-linejoin="round"/>
<path d="M197.17 225.033C205.222 225.033 211.75 218.508 211.75 210.459C211.75 202.411 205.222 195.886 197.17 195.886C189.118 195.886 182.591 202.411 182.591 210.459C182.591 218.508 189.118 225.033 197.17 225.033Z" fill="#3D3D3D"/>
<path d="M192.531 214.434C195.093 214.434 197.17 212.358 197.17 209.797C197.17 207.236 195.093 205.16 192.531 205.16C189.969 205.16 187.893 207.236 187.893 209.797C187.893 212.358 189.969 214.434 192.531 214.434Z" fill="white"/>
</svg>
