<svg width="64" height="64" viewBox="0 0 64 64" fill="none" xmlns="http://www.w3.org/2000/svg">
<path fill-rule="evenodd" clip-rule="evenodd" d="M6.28571 23.2381C9.75722 23.2381 12.5714 20.4239 12.5714 16.9524C12.5714 13.4809 9.75722 10.6667 6.28571 10.6667C2.81421 10.6667 0 13.4809 0 16.9524C0 20.4239 2.81421 23.2381 6.28571 23.2381ZM6.28571 39.581C9.75722 39.581 12.5714 36.7668 12.5714 33.2953C12.5714 29.8238 9.75722 27.0095 6.28571 27.0095C2.81421 27.0095 0 29.8238 0 33.2953C0 36.7668 2.81421 39.581 6.28571 39.581ZM44 16.9524C44 20.4239 41.1858 23.2381 37.7143 23.2381C34.2428 23.2381 31.4286 20.4239 31.4286 16.9524C31.4286 13.4809 34.2428 10.6667 37.7143 10.6667C41.1858 10.6667 44 13.4809 44 16.9524ZM21.3714 23.2381C24.8429 23.2381 27.6571 20.4239 27.6571 16.9524C27.6571 13.4809 24.8429 10.6667 21.3714 10.6667C17.8999 10.6667 15.0857 13.4809 15.0857 16.9524C15.0857 20.4239 17.8999 23.2381 21.3714 23.2381ZM28.9143 33.2953C28.9143 36.7668 26.1001 39.581 22.6286 39.581C19.1571 39.581 16.3429 36.7668 16.3429 33.2953C16.3429 29.8238 19.1571 27.0095 22.6286 27.0095C26.1001 27.0095 28.9143 29.8238 28.9143 33.2953ZM6.28571 54.6667C9.75722 54.6667 12.5714 51.8525 12.5714 48.381C12.5714 44.9094 9.75722 42.0952 6.28571 42.0952C2.81421 42.0952 0 44.9094 0 48.381C0 51.8525 2.81421 54.6667 6.28571 54.6667ZM44 48.381C44 51.8525 41.1858 54.6667 37.7143 54.6667C34.2428 54.6667 31.4286 51.8525 31.4286 48.381C31.4286 44.9094 34.2428 42.0952 37.7143 42.0952C41.1858 42.0952 44 44.9094 44 48.381Z" fill="#3D3D3D"/>
</svg>
