<svg width="710" height="576" viewBox="0 0 710 576" fill="none" xmlns="http://www.w3.org/2000/svg">
<path fill-rule="evenodd" clip-rule="evenodd" d="M586.551 320.13L533.472 348.15L580.449 308.97C572.814 295.677 564.237 283.088 554.8 271.323L324.602 335.142L532.536 246.67C523.034 237.32 512.943 228.741 502.341 221L151.573 284.018C114.331 335.963 94.0287 400.488 94 467H622C621.979 415.417 609.75 364.754 586.551 320.13Z" fill="#F6F6F6"/>
<path fill-rule="evenodd" clip-rule="evenodd" d="M474 197.679C364.895 138.43 233.662 169.926 156 274C238.791 253.746 382.937 218.685 474 197.679Z" fill="#F6F6F6"/>
<path d="M17 15C19.2091 15 21 13.2091 21 11C21 8.79086 19.2091 7 17 7C14.7909 7 13 8.79086 13 11C13 13.2091 14.7909 15 17 15Z" fill="#3D3D3D"/>
<path d="M30 15C32.2091 15 34 13.2091 34 11C34 8.79086 32.2091 7 30 7C27.7909 7 26 8.79086 26 11C26 13.2091 27.7909 15 30 15Z" fill="#3D3D3D"/>
<rect x="1" y="1" width="708" height="574" stroke="#3D3D3D" stroke-width="2"/>
<path d="M51 52.5C51 61.6127 43.6127 69 34.5 69C25.3873 69 18 61.6127 18 52.5C18 43.3873 25.3873 36 34.5 36C43.6127 36 51 43.3873 51 52.5Z" stroke="#3D3D3D" stroke-width="2"/>
<rect x="50" y="116" width="610" height="417" stroke="#3D3D3D" stroke-width="2"/>
<path d="M43 15C45.2091 15 47 13.2091 47 11C47 8.79086 45.2091 7 43 7C40.7909 7 39 8.79086 39 11C39 13.2091 40.7909 15 43 15Z" fill="#3D3D3D"/>
<rect y="20" width="710" height="2" fill="#3D3D3D"/>
<path fill-rule="evenodd" clip-rule="evenodd" d="M666 39H693V41H666V39ZM666 47H693V49H666V47ZM693 55H666V57H693V55Z" fill="#3D3D3D"/>
<path d="M140.063 481.275V490.749L125.756 481.144C125.601 481.044 125.409 481.043 125.253 481.141C125.097 481.239 125.001 481.421 125 481.619V502.381C125.001 502.579 125.097 502.761 125.253 502.859C125.409 502.957 125.601 502.956 125.756 502.856L140.063 493.251V502.725C140.063 502.877 140.175 503 140.312 503H144.75C144.888 503 145 502.877 145 502.725V481.275C145 481.123 144.888 481 144.75 481H140.312C140.175 481 140.063 481.123 140.063 481.275Z" fill="#3D3D3D"/>
<path fill-rule="evenodd" clip-rule="evenodd" d="M98.5062 503H102.494C102.627 503.001 102.756 502.944 102.851 502.84C102.945 502.737 102.999 502.597 103 502.45V481.55C102.999 481.403 102.945 481.263 102.851 481.16C102.756 481.056 102.627 480.999 102.494 481H98.5062C98.3728 480.999 98.2444 481.056 98.1495 481.16C98.0545 481.263 98.0007 481.403 98 481.55V502.45C98.0007 502.597 98.0545 502.737 98.1495 502.84C98.2444 502.944 98.3728 503.001 98.5062 503ZM109.506 503H113.494C113.627 503.001 113.756 502.944 113.851 502.84C113.945 502.737 113.999 502.597 114 502.45V481.55C113.999 481.403 113.945 481.263 113.851 481.16C113.756 481.056 113.627 480.999 113.494 481H109.506C109.373 480.999 109.244 481.056 109.149 481.16C109.055 481.263 109.001 481.403 109 481.55V502.45C109.001 502.597 109.055 502.737 109.149 502.84C109.244 502.944 109.373 503.001 109.506 503Z" fill="#3D3D3D"/>
<path fill-rule="evenodd" clip-rule="evenodd" d="M73.0009 481.564V502.433C72.991 502.63 73.0799 502.817 73.2324 502.92C73.385 503.024 73.5768 503.027 73.732 502.928L88.7609 492.494C88.9103 492.384 89 492.2 89 492.002C89 491.804 88.9103 491.62 88.7609 491.51L73.732 481.076C73.5782 480.974 73.386 480.975 73.2327 481.077C73.0795 481.18 72.9902 481.367 73.0009 481.564Z" fill="#FF7171"/>
<rect x="76" y="467" width="554" height="4" fill="#3D3D3D"/>
<rect x="76" y="467" width="96" height="4" fill="#FF7171"/>
<path d="M596.357 426L594.484 424.436C587.826 418.772 583.436 415.103 583.036 410.041C582.851 408.099 583.385 406.156 584.516 404.656C585.647 403.156 587.278 402.226 589.039 402.078C591.119 401.889 593.169 402.721 594.645 404.354C595.843 402.462 597.731 401.249 599.809 401.035C601.566 400.843 603.319 401.445 604.668 402.705C606.017 403.965 606.848 405.776 606.971 407.725C607.371 412.786 603.623 417.243 597.955 424.1L596.357 426Z" fill="#FF6584"/>
<path d="M617.795 400L616.785 397.716C613.233 389.505 610.865 384.148 612.559 379.538C613.182 377.754 614.435 376.322 616.033 375.57C617.631 374.818 619.438 374.81 621.042 375.546C622.943 376.404 624.405 378.137 625.039 380.287C626.854 379.226 629.001 379.096 630.91 379.932C632.529 380.628 633.822 382.014 634.497 383.776C635.171 385.538 635.168 387.525 634.488 389.284C632.794 393.894 627.707 395.937 619.965 399.129L617.795 400Z" fill="#FF6584"/>
<path d="M608.795 457L607.785 454.716C604.233 446.505 601.865 441.148 603.559 436.538C604.182 434.754 605.435 433.322 607.033 432.57C608.631 431.818 610.438 431.81 612.042 432.546C613.943 433.404 615.405 435.137 616.039 437.287C617.854 436.226 620.001 436.096 621.91 436.932C623.529 437.628 624.822 439.014 625.497 440.776C626.171 442.538 626.168 444.525 625.488 446.284C623.794 450.894 618.707 452.937 610.965 456.129L608.795 457Z" fill="#FF6584"/>
<rect x="182" y="42" width="346" height="24" stroke="#3D3D3D" stroke-width="2"/>
</svg>
